<?xml version="1.0" encoding="utf-8"?>
<!-- Generator: Adobe Illustrator 17.0.0, SVG Export Plug-In . SVG Version: 6.00 Build 0)  -->
<!DOCTYPE svg PUBLIC "-//W3C//DTD SVG 1.1//EN" "http://www.w3.org/Graphics/SVG/1.1/DTD/svg11.dtd">
<svg version="1.1" xmlns="http://www.w3.org/2000/svg" xmlns:xlink="http://www.w3.org/1999/xlink" x="0px" y="0px"
	 width="386.364px" height="123.06px" viewBox="0 0 386.364 123.06" enable-background="new 0 0 386.364 123.06"
	 xml:space="preserve">
<g id="Layer_1">
</g>
<g id="Layer_2">
</g>
<g id="Layer_3">
	<g>
		<g>
			<path fill="#00A551" d="M102.952,94.834H87.648L20.92,25.089v69.745H0V0h16.614l65.422,68.546V0h20.916V94.834L102.952,94.834z
				 M386.364,94.834H371.06l-66.727-69.745v69.745h-20.92V0h16.614l65.421,68.546V0h20.917V94.834L386.364,94.834z"/>
			<path fill="#F48120" d="M243.866,88.113c0,1.985-1.687,3.598-4.955,4.84c-3.322,1.261-7.57,1.881-12.748,1.881h-65.637
				c-5.173,0-9.422-0.62-12.743-1.881c-3.326-1.242-4.96-2.856-4.96-4.84V6.723c0-1.965,1.634-3.599,4.96-4.84
				C151.103,0.621,155.352,0,160.525,0h65.637c5.178,0,9.427,0.621,12.748,1.883c3.268,1.241,4.955,2.875,4.955,4.84v22.069h-22.33
				V7.447h-56.542v79.942h56.542V54.606h-26.693v-7.282h49.023V88.113L243.866,88.113z"/>
			<path fill="#00A551" d="M94.156,122.983h-1.833l-7.999-14.152v14.152h-2.506v-19.245h1.992l7.84,13.912v-13.912h2.507V122.983
				L94.156,122.983z M109.035,121.593c0,0.929-0.712,1.39-2.14,1.39h-6.124c-1.425,0-2.142-0.461-2.142-1.39v-9.187
				c0-0.925,0.717-1.39,2.142-1.39h6.124c1.429,0,2.14,0.465,2.14,1.39v4.305l-0.86,0.579h-7.078v4.329h5.469v-2.192h2.469V121.593
				L109.035,121.593z M106.566,115.986v-3.602h-5.469v3.602H106.566L106.566,115.986z M123.338,122.983h-2.577l-3.141-4.735
				l-3.174,4.735h-2.506v-0.051l4.341-6.099l-4.072-5.816h2.583l2.866,4.389l2.945-4.389h2.467v0.051l-4.072,5.717L123.338,122.983
				L123.338,122.983z M132.905,122.983h-3.617c-1.43,0-2.142-0.461-2.142-1.39v-9.138h-2.239v-1.439h2.239v-3.723h2.506v3.723h3.253
				v1.439h-3.253v9.089h3.253V122.983L132.905,122.983z M156.24,121.62c0,0.401-0.203,0.729-0.595,0.982
				c-0.398,0.256-0.908,0.381-1.526,0.381h-7.871c-0.618,0-1.128-0.125-1.526-0.381c-0.397-0.252-0.595-0.58-0.595-0.982v-16.517
				c0-0.399,0.198-0.731,0.595-0.983c0.398-0.256,0.908-0.383,1.526-0.383h7.871c0.618,0,1.128,0.127,1.526,0.383
				c0.392,0.251,0.595,0.583,0.595,0.983v4.478h-2.677v-4.331h-6.777v16.222h6.777v-6.652h-3.199v-1.478h5.876V121.62L156.24,121.62
				z M171.081,121.593c0,0.929-0.712,1.39-2.14,1.39h-6.124c-1.425,0-2.142-0.461-2.142-1.39v-9.187c0-0.925,0.717-1.39,2.142-1.39
				h6.124c1.428,0,2.14,0.465,2.14,1.39v4.305l-0.86,0.579h-7.078v4.329h5.469v-2.192h2.469V121.593L171.081,121.593z
				 M168.612,115.986v-3.602h-5.469v3.602H168.612L168.612,115.986z M185.979,122.983h-2.545v-10.501l-5.604,0.096v10.405h-2.548
				v-11.966h2.548v0.337c0.991-0.085,1.996-0.173,3.002-0.262c1.223-0.097,2.233-0.146,3.025-0.146c1.417,0,2.122,0.444,2.122,1.339
				V122.983L185.979,122.983z M200.499,121.593c0,0.929-0.713,1.39-2.141,1.39h-6.123c-1.425,0-2.144-0.461-2.144-1.39v-9.187
				c0-0.925,0.719-1.39,2.144-1.39h6.123c1.428,0,2.141,0.465,2.141,1.39v4.305l-0.86,0.579h-7.077v4.329h5.47v-2.192h2.468V121.593
				L200.499,121.593z M198.031,115.986v-3.602h-5.47v3.602H198.031L198.031,115.986z M214.444,114.954h-2.507v-2.472l-4.689,0.096
				v10.405h-2.546v-11.966h2.546v0.337c0.844-0.085,1.691-0.173,2.548-0.262c1.016-0.097,1.866-0.146,2.538-0.146
				c1.405,0,2.11,0.444,2.11,1.339V114.954L214.444,114.954z M228.193,122.983h-2.506v-0.33c-1.006,0.088-2.017,0.176-3.023,0.255
				c-1.247,0.099-2.252,0.152-3.003,0.152c-1.392,0-2.083-0.446-2.083-1.33v-4.366c0-0.919,0.719-1.377,2.16-1.377h5.988v-3.602
				h-5.47v2.041h-2.469v-2.019c0-0.925,0.713-1.39,2.14-1.39h6.124c1.425,0,2.142,0.465,2.142,1.39V122.983L228.193,122.983z
				 M225.726,121.493v-4.226h-5.681v4.302L225.726,121.493L225.726,121.493z M239.058,122.983h-3.616
				c-1.431,0-2.143-0.461-2.143-1.39v-9.138h-2.238v-1.439h2.238v-3.723h2.508v3.723h3.251v1.439h-3.251v9.089h3.251V122.983
				L239.058,122.983z M244.999,108.397h-2.578v-2.064h2.578V108.397L244.999,108.397z M244.967,122.983h-2.507v-11.966h2.507
				V122.983L244.967,122.983z M259.977,121.593c0,0.929-0.719,1.39-2.162,1.39h-6.39c-1.425,0-2.144-0.461-2.144-1.39v-9.187
				c0-0.925,0.719-1.39,2.144-1.39h6.39c1.443,0,2.162,0.465,2.162,1.39V121.593L259.977,121.593z M257.431,121.544v-9.089h-5.602
				v9.089H257.431L257.431,121.544z M274.817,122.983h-2.546v-10.501l-5.604,0.096v10.405h-2.545v-11.966h2.545v0.337
				c0.992-0.085,1.999-0.173,3.005-0.262c1.221-0.097,2.233-0.146,3.024-0.146c1.417,0,2.121,0.444,2.121,1.339V122.983
				L274.817,122.983z M299.249,122.983h-1.833l-8-14.152v14.152h-2.506v-19.245h1.992l7.84,13.912v-13.912h2.507V122.983
				L299.249,122.983z M314.127,121.593c0,0.929-0.713,1.39-2.14,1.39h-6.124c-1.425,0-2.144-0.461-2.144-1.39v-9.187
				c0-0.925,0.719-1.39,2.144-1.39h6.124c1.427,0,2.14,0.465,2.14,1.39v4.305l-0.859,0.579h-7.078v4.329h5.469v-2.192h2.469V121.593
				L314.127,121.593z M311.659,115.986v-3.602h-5.469v3.602H311.659L311.659,115.986z M325.03,122.983h-3.616
				c-1.431,0-2.144-0.461-2.144-1.39v-9.138h-2.237v-1.439h2.237v-3.723h2.508v3.723h3.252v1.439h-3.252v9.089h3.252V122.983
				L325.03,122.983z M344.915,111.017l-3.843,11.99h-2.272l-2.736-9.086l-2.737,9.086h-2.238l-3.845-11.99h2.389l2.622,9.225
				l2.719-9.225h2.219l2.716,9.225l2.617-9.225H344.915L344.915,111.017z M358.746,121.593c0,0.929-0.719,1.39-2.163,1.39h-6.391
				c-1.424,0-2.141-0.461-2.141-1.39v-9.187c0-0.925,0.717-1.39,2.141-1.39h6.391c1.444,0,2.163,0.465,2.163,1.39V121.593
				L358.746,121.593z M356.201,121.544v-9.089h-5.604v9.089H356.201L356.201,121.544z M372.633,114.954h-2.508v-2.472l-4.687,0.096
				v10.405h-2.547v-11.966h2.547v0.337c0.843-0.085,1.691-0.173,2.548-0.262c1.015-0.097,1.865-0.146,2.536-0.146
				c1.406,0,2.11,0.444,2.11,1.339V114.954L372.633,114.954z M386.303,122.983h-2.772l-5.126-6.098v6.098h-2.546v-19.245h2.546
				v12.224l4.778-4.944h2.737v0.051l-5.413,5.289L386.303,122.983L386.303,122.983z"/>
		</g>
	</g>
</g>
</svg>
